<mxfile host="app.diagrams.net" modified="2023-06-11T15:24:01.237Z" agent="5.0 (Windows NT 10.0; Win64; x64) AppleWebKit/537.36 (KHTML, like Gecko) Chrome/114.0.0.0 Safari/537.36" version="20.8.5" etag="GZXG6bhv4eIFehUEqx8U" type="github">
  <diagram id="hsn3fKaMIO-5Dz97zqOI" name="Halaman-1">
    <mxGraphModel dx="1149" dy="925" grid="1" gridSize="10" guides="1" tooltips="1" connect="1" arrows="1" fold="1" page="1" pageScale="1" pageWidth="1169" pageHeight="827" math="0" shadow="0">
      <root>
        <mxCell id="0" />
        <mxCell id="1" parent="0" />
        <mxCell id="RGUvr4DlTQq4D04LTztD-4" value="" style="edgeStyle=orthogonalEdgeStyle;rounded=0;orthogonalLoop=1;jettySize=auto;html=1;" edge="1" parent="1" source="RGUvr4DlTQq4D04LTztD-1" target="RGUvr4DlTQq4D04LTztD-3">
          <mxGeometry relative="1" as="geometry" />
        </mxCell>
        <mxCell id="RGUvr4DlTQq4D04LTztD-1" value="Mulai" style="strokeWidth=2;html=1;shape=mxgraph.flowchart.start_1;whiteSpace=wrap;" vertex="1" parent="1">
          <mxGeometry x="510" y="40" width="100" height="60" as="geometry" />
        </mxCell>
        <mxCell id="RGUvr4DlTQq4D04LTztD-11" value="" style="edgeStyle=orthogonalEdgeStyle;rounded=0;orthogonalLoop=1;jettySize=auto;html=1;" edge="1" parent="1" source="RGUvr4DlTQq4D04LTztD-3" target="RGUvr4DlTQq4D04LTztD-10">
          <mxGeometry relative="1" as="geometry" />
        </mxCell>
        <mxCell id="RGUvr4DlTQq4D04LTztD-3" value="Studi Literatur" style="whiteSpace=wrap;html=1;strokeWidth=2;" vertex="1" parent="1">
          <mxGeometry x="500" y="140" width="120" height="60" as="geometry" />
        </mxCell>
        <mxCell id="RGUvr4DlTQq4D04LTztD-22" style="edgeStyle=orthogonalEdgeStyle;rounded=0;orthogonalLoop=1;jettySize=auto;html=1;entryX=0.5;entryY=0;entryDx=0;entryDy=0;dashed=1;" edge="1" parent="1" source="RGUvr4DlTQq4D04LTztD-10" target="RGUvr4DlTQq4D04LTztD-19">
          <mxGeometry relative="1" as="geometry" />
        </mxCell>
        <mxCell id="RGUvr4DlTQq4D04LTztD-25" style="edgeStyle=orthogonalEdgeStyle;rounded=0;orthogonalLoop=1;jettySize=auto;html=1;" edge="1" parent="1" source="RGUvr4DlTQq4D04LTztD-10" target="RGUvr4DlTQq4D04LTztD-24">
          <mxGeometry relative="1" as="geometry" />
        </mxCell>
        <mxCell id="RGUvr4DlTQq4D04LTztD-10" value="Pengumpulan dan Analisis Data" style="whiteSpace=wrap;html=1;strokeWidth=2;" vertex="1" parent="1">
          <mxGeometry x="500" y="220" width="120" height="60" as="geometry" />
        </mxCell>
        <mxCell id="RGUvr4DlTQq4D04LTztD-19" value="&lt;ol&gt;&lt;li&gt;Data Lingkungan ( batimetri, pasang surut, angin, arus, dan tanah)&lt;/li&gt;&lt;li style=&quot;text-align: left;&quot;&gt;Data Kapal&lt;/li&gt;&lt;li style=&quot;text-align: left;&quot;&gt;Data Alat Bongkar Muat&lt;/li&gt;&lt;/ol&gt;" style="shape=parallelogram;perimeter=parallelogramPerimeter;whiteSpace=wrap;html=1;fixedSize=1;strokeWidth=2;align=center;" vertex="1" parent="1">
          <mxGeometry x="20" y="280" width="420" height="70" as="geometry" />
        </mxCell>
        <mxCell id="RGUvr4DlTQq4D04LTztD-29" value="" style="edgeStyle=orthogonalEdgeStyle;rounded=0;orthogonalLoop=1;jettySize=auto;html=1;dashed=1;" edge="1" parent="1" source="RGUvr4DlTQq4D04LTztD-24" target="RGUvr4DlTQq4D04LTztD-28">
          <mxGeometry relative="1" as="geometry" />
        </mxCell>
        <mxCell id="RGUvr4DlTQq4D04LTztD-31" value="" style="edgeStyle=orthogonalEdgeStyle;rounded=0;orthogonalLoop=1;jettySize=auto;html=1;" edge="1" parent="1" source="RGUvr4DlTQq4D04LTztD-24" target="RGUvr4DlTQq4D04LTztD-30">
          <mxGeometry relative="1" as="geometry" />
        </mxCell>
        <mxCell id="RGUvr4DlTQq4D04LTztD-24" value="Penentuan Layout dan dimensi Plencengan Dermaga" style="whiteSpace=wrap;html=1;strokeWidth=2;" vertex="1" parent="1">
          <mxGeometry x="500" y="320" width="120" height="60" as="geometry" />
        </mxCell>
        <mxCell id="RGUvr4DlTQq4D04LTztD-28" value="&lt;ul&gt;&lt;li&gt;Layout Plencengan&lt;/li&gt;&lt;li&gt;Kedalaman Perairan&lt;/li&gt;&lt;/ul&gt;" style="shape=parallelogram;perimeter=parallelogramPerimeter;whiteSpace=wrap;html=1;fixedSize=1;strokeWidth=2;align=left;" vertex="1" parent="1">
          <mxGeometry x="700" y="310" width="190" height="80" as="geometry" />
        </mxCell>
        <mxCell id="RGUvr4DlTQq4D04LTztD-35" style="edgeStyle=orthogonalEdgeStyle;rounded=0;orthogonalLoop=1;jettySize=auto;html=1;dashed=1;" edge="1" parent="1" source="RGUvr4DlTQq4D04LTztD-30" target="RGUvr4DlTQq4D04LTztD-34">
          <mxGeometry relative="1" as="geometry" />
        </mxCell>
        <mxCell id="RGUvr4DlTQq4D04LTztD-30" value="Penentuan Dimensi Elemen Struktur Plencenngan Dermaga" style="whiteSpace=wrap;html=1;strokeWidth=2;" vertex="1" parent="1">
          <mxGeometry x="500" y="424" width="120" height="60" as="geometry" />
        </mxCell>
        <mxCell id="RGUvr4DlTQq4D04LTztD-34" value="&lt;ul&gt;&lt;li&gt;Tiang Pancang&lt;/li&gt;&lt;li&gt;&lt;i&gt;Pile Cap&lt;/i&gt;&lt;/li&gt;&lt;li&gt;Balok&lt;/li&gt;&lt;li&gt;Pelat&lt;/li&gt;&lt;/ul&gt;" style="shape=parallelogram;perimeter=parallelogramPerimeter;whiteSpace=wrap;html=1;fixedSize=1;strokeWidth=2;align=left;" vertex="1" parent="1">
          <mxGeometry x="690" y="414" width="190" height="80" as="geometry" />
        </mxCell>
      </root>
    </mxGraphModel>
  </diagram>
</mxfile>
